<?xml version="1.0" encoding="utf-8"?>
<!-- Generator: Adobe Illustrator 24.1.2, SVG Export Plug-In . SVG Version: 6.00 Build 0)  -->
<svg version="1.1" id="Слой_1" xmlns="http://www.w3.org/2000/svg" xmlns:xlink="http://www.w3.org/1999/xlink" x="0px" y="0px"
	 viewBox="0 0 329 329" style="enable-background:new 0 0 329 329;" xml:space="preserve">
<style type="text/css">
	.st0{fill:#FFFFFF;stroke:#1D1D1B;stroke-width:5;stroke-miterlimit:10;}
</style>
<path class="st0" d="M193.5,164.8L317,41.3c8-8,8-21,0-29c-8-8-21-8-29,0L164.5,135.7L41.1,12.3c-8-8-21-8-29,0c-8,8-8,21,0,29
	l123.4,123.4L12,288.2c-8,8-8,21,0,29c4,4,9.3,6,14.5,6s10.5-2,14.5-6l123.4-123.4l123.4,123.4c4,4,9.3,6,14.5,6s10.5-2,14.5-6
	c8-8,8-21,0-29L193.5,164.8z"/>
</svg>
